<svg xmlns="http://www.w3.org/2000/svg" width="30" height="30" viewBox="0 0 30 30"><defs><style>.a{fill:#fff;}</style></defs><path class="a" d="M23.25,86.5h1.312c.375,0,.75-.5.75-1v-18c0-.5-.375-1-.75-1H23.25c-.375,0-.75.5-.75,1v18C22.5,86,22.875,86.5,23.25,86.5ZM12,86.5h1.313c.375,0,.75-.5.75-1V70c0-.5-.375-1-.75-1H12c-.375,0-.75.5-.75,1V85.5C11.25,86,11.625,86.5,12,86.5Zm5.625,0h1.312c.375,0,.75-.5.75-1V75c0-.5-.375-1-.75-1H17.625c-.375,0-.75.5-.75,1V85.5C16.875,86,17.25,86.5,17.625,86.5Zm11.438,3.75H2.813v-25c0-.691-.42-1.25-.937-1.25H.938C.42,64,0,64.559,0,65.25V91.5C0,92.88.84,94,1.875,94H29.063c.518,0,.938-.559.938-1.25V91.5C30,90.809,29.58,90.25,29.063,90.25ZM6.375,86.5H7.687c.375,0,.75-.5.75-1V80c0-.5-.375-1-.75-1H6.375c-.375,0-.75.5-.75,1v5.5C5.625,86,6,86.5,6.375,86.5Z" transform="translate(0 -64)"/></svg>