<svg xmlns="http://www.w3.org/2000/svg" width="84.22" height="53.989" viewBox="0 0 84.22 53.989"><defs><style>.a{fill:#ffc200;}</style></defs><path class="a" d="M80.272,64H78.956v2.812A1.853,1.853,0,0,1,76.982,68.5H70.4a1.853,1.853,0,0,1-1.974-1.687V64H15.791v2.812A1.853,1.853,0,0,1,13.817,68.5H7.238a1.853,1.853,0,0,1-1.974-1.687V64H3.948A3.686,3.686,0,0,0,0,67.374v47.24a3.686,3.686,0,0,0,3.948,3.374H5.264v-2.812a1.853,1.853,0,0,1,1.974-1.687h6.58a1.853,1.853,0,0,1,1.974,1.687v2.812H68.429v-2.812A1.853,1.853,0,0,1,70.4,113.49h6.58a1.853,1.853,0,0,1,1.974,1.687v2.812h1.316a3.686,3.686,0,0,0,3.948-3.374V67.374A3.686,3.686,0,0,0,80.272,64ZM15.791,107.3a1.853,1.853,0,0,1-1.974,1.687H7.238A1.853,1.853,0,0,1,5.264,107.3V101.68a1.853,1.853,0,0,1,1.974-1.687h6.58a1.853,1.853,0,0,1,1.974,1.687Zm0-13.5a1.853,1.853,0,0,1-1.974,1.687H7.238a1.853,1.853,0,0,1-1.974-1.687V88.182A1.853,1.853,0,0,1,7.238,86.5h6.58a1.853,1.853,0,0,1,1.974,1.687Zm0-13.5A1.853,1.853,0,0,1,13.817,82H7.238a1.853,1.853,0,0,1-1.974-1.687V74.685A1.853,1.853,0,0,1,7.238,73h6.58a1.853,1.853,0,0,1,1.974,1.687Zm44.742,29.244a1.853,1.853,0,0,1-1.974,1.687h-32.9a1.853,1.853,0,0,1-1.974-1.687v-13.5a1.853,1.853,0,0,1,1.974-1.687h32.9a1.853,1.853,0,0,1,1.974,1.687Zm0-23.62a1.853,1.853,0,0,1-1.974,1.687h-32.9a1.853,1.853,0,0,1-1.974-1.687v-13.5a1.853,1.853,0,0,1,1.974-1.687h32.9a1.853,1.853,0,0,1,1.974,1.687ZM78.956,107.3a1.853,1.853,0,0,1-1.974,1.687H70.4a1.853,1.853,0,0,1-1.974-1.687V101.68A1.853,1.853,0,0,1,70.4,99.992h6.58a1.853,1.853,0,0,1,1.974,1.687Zm0-13.5a1.853,1.853,0,0,1-1.974,1.687H70.4a1.853,1.853,0,0,1-1.974-1.687V88.182A1.853,1.853,0,0,1,70.4,86.5h6.58a1.853,1.853,0,0,1,1.974,1.687Zm0-13.5A1.853,1.853,0,0,1,76.982,82H70.4a1.853,1.853,0,0,1-1.974-1.687V74.685A1.853,1.853,0,0,1,70.4,73h6.58a1.853,1.853,0,0,1,1.974,1.687Z" transform="translate(0 -64)"/></svg>