<svg xmlns="http://www.w3.org/2000/svg" width="30" height="30" viewBox="0 0 30 30"><defs><style>.a{fill:#fff;}</style></defs><path class="a" d="M6.894,22.438c-1.512.217-4.923.8-5.913,1.793a3.328,3.328,0,0,0,.053,4.7,3.332,3.332,0,0,0,4.706.053c.99-.99,1.576-4.4,1.793-5.911A.568.568,0,0,0,6.894,22.438ZM4.48,20A11.7,11.7,0,0,1,20.964,4.841a22.23,22.23,0,0,1,.7-2.829,14.52,14.52,0,0,0-19.96,18.7A22.586,22.586,0,0,1,4.48,20ZM25.125,9.006A11.7,11.7,0,0,1,9.971,25.49a21.682,21.682,0,0,1-.715,2.765A14.522,14.522,0,0,0,27.967,8.3a23.861,23.861,0,0,1-2.842.7ZM23.174,7.43c1.512-.217,4.923-.8,5.913-1.793a3.328,3.328,0,0,0-.053-4.7A3.332,3.332,0,0,0,24.328.881c-.99.99-1.576,4.4-1.793,5.911a.568.568,0,0,0,.639.639ZM12.215,13.774a.7.7,0,0,0-.668-.187l-5.3,1.33A.7.7,0,0,0,6.349,16.3l3.065.281L9.7,19.644a.707.707,0,0,0,.645.639h.053a.707.707,0,0,0,.686-.533l1.324-5.3a.712.712,0,0,0-.188-.674Zm2.326-1.47,5.3-1.324A.7.7,0,0,0,19.74,9.6l-3.065-.281-.281-3.064a.707.707,0,0,0-.645-.639.738.738,0,0,0-.738.533l-1.324,5.3a.705.705,0,0,0,.188.668.72.72,0,0,0,.668.187Zm3.047,5.184a21.826,21.826,0,0,1-4.917,3.831.805.805,0,0,0-.1,1.371c2.28,1.623,6.27.363,8.421-1.793s3.416-6.139,1.793-8.418a.806.806,0,0,0-1.371.1A21.422,21.422,0,0,1,17.589,17.488Z" transform="translate(-0.034 0.066)"/></svg>