<svg xmlns="http://www.w3.org/2000/svg" width="30" height="30" viewBox="0 0 30 30"><defs><style>.a{fill:#fff;}</style></defs><path class="a" d="M28.75,64H5.833c-1.086,0-2.013,1.045-2.357,2.5H1.25C.56,66.5,0,67.339,0,68.375v21.25C0,92.041,1.306,94,2.917,94H28.75c.69,0,1.25-.839,1.25-1.875V65.875C30,64.839,29.44,64,28.75,64ZM2.5,89.625V70.25h.833V89.625c0,.345-.187.625-.417.625S2.5,89.97,2.5,89.625Zm25,.625H5.8c.019-.2.03-.413.03-.625V67.75H27.5ZM8.958,80.875h7.083c.345,0,.625-.42.625-.937v-7.5c0-.518-.28-.937-.625-.937H8.958c-.345,0-.625.42-.625.938v7.5C8.333,80.455,8.613,80.875,8.958,80.875Zm1.458-6.25h4.167V77.75H10.417ZM8.333,85.563V83.688c0-.518.28-.937.625-.937h7.083c.345,0,.625.42.625.938v1.875c0,.518-.28.938-.625.938H8.958C8.613,86.5,8.333,86.08,8.333,85.563Zm10,0V83.688c0-.518.28-.937.625-.937h5.417c.345,0,.625.42.625.938v1.875c0,.518-.28.938-.625.938H18.958C18.613,86.5,18.333,86.08,18.333,85.563Zm0-11.25V72.438c0-.518.28-.937.625-.937h5.417c.345,0,.625.42.625.938v1.875c0,.518-.28.938-.625.938H18.958C18.613,75.25,18.333,74.83,18.333,74.313Zm0,5.625V78.063c0-.518.28-.937.625-.937h5.417c.345,0,.625.42.625.938v1.875c0,.518-.28.938-.625.938H18.958C18.613,80.875,18.333,80.455,18.333,79.938Z" transform="translate(0 -64)"/></svg>